<?xml version="1.0" standalone="no"?>
<!DOCTYPE svg PUBLIC "-//W3C//DTD SVG 20010904//EN"
 "http://www.w3.org/TR/2001/REC-SVG-20010904/DTD/svg10.dtd">
<svg version="1.0" xmlns="http://www.w3.org/2000/svg"
 width="126.000000pt" height="106.000000pt" viewBox="0 0 126.000000 106.000000"
 preserveAspectRatio="xMidYMid meet">
<metadata>
Created by potrace 1.16, written by Peter Selinger 2001-2019
</metadata>
<g transform="translate(0.000000,106.000000) scale(0.100000,-0.100000)"
fill="#000000" stroke="none">
<path d="M885 1046 c-5 -3 -26 -7 -46 -10 -87 -15 -158 -93 -172 -188 l-6 -38
85 0 c78 0 84 1 84 20 0 12 11 32 25 45 19 20 34 25 75 25 41 0 56 -5 75 -25
42 -41 27 -87 -42 -131 -74 -47 -113 -109 -113 -181 0 -22 4 -23 80 -23 l79 0
11 40 c8 31 23 49 65 80 29 22 66 56 82 77 24 31 28 45 28 103 0 87 -30 137
-107 174 -49 24 -174 43 -203 32z"/>
<path d="M272 1003 c-5 -16 -60 -167 -120 -338 -61 -171 -114 -318 -117 -327
-7 -16 1 -18 83 -18 l90 0 22 65 22 65 137 0 137 0 17 -52 c26 -81 23 -79 119
-76 l86 3 -126 353 -125 352 -108 0 -107 0 -10 -27z m162 -291 c20 -57 36
-108 36 -113 0 -5 -38 -9 -84 -9 l-84 0 41 119 c23 66 45 117 49 113 3 -4 22
-54 42 -110z"/>
<path d="M850 400 l0 -80 80 0 80 0 0 80 0 80 -80 0 -80 0 0 -80z"/>
</g>
</svg>
